<svg width="13" height="13" viewBox="0 0 13 13" fill="none" xmlns="http://www.w3.org/2000/svg">
<g clip-path="url(#clip0_9_781)">
<path d="M9.17365 8.08124C9.93013 7.04896 10.269 5.76912 10.1223 4.49776C9.9757 3.2264 9.35444 2.05728 8.38284 1.22431C7.41124 0.391331 6.16095 -0.0440728 4.88212 0.00520314C3.60328 0.054479 2.3902 0.584801 1.48558 1.49007C0.580957 2.39534 0.0515026 3.6088 0.00314182 4.88767C-0.045219 6.16654 0.39108 7.41652 1.22475 8.38752C2.05842 9.35853 3.22798 9.97895 4.49945 10.1247C5.77091 10.2704 7.05051 9.93064 8.08224 9.17342H8.08146C8.1049 9.20467 8.1299 9.23436 8.15803 9.26327L11.1658 12.2711C11.3123 12.4177 11.5111 12.5001 11.7183 12.5001C11.9255 12.5002 12.1243 12.418 12.2709 12.2715C12.4175 12.125 12.4999 11.9263 12.5 11.719C12.5001 11.5118 12.4178 11.313 12.2713 11.1664L9.26349 8.15858C9.23556 8.13031 9.20553 8.10497 9.17365 8.08124ZM9.37521 5.07811C9.37521 5.64239 9.26407 6.20113 9.04813 6.72246C8.8322 7.24378 8.51569 7.71746 8.11669 8.11646C7.71769 8.51546 7.244 8.83197 6.72268 9.04791C6.20136 9.26385 5.64261 9.37499 5.07834 9.37499C4.51406 9.37499 3.95532 9.26385 3.434 9.04791C2.91267 8.83197 2.43899 8.51546 2.03999 8.11646C1.64099 7.71746 1.32448 7.24378 1.10854 6.72246C0.892605 6.20113 0.781463 5.64239 0.781463 5.07811C0.781463 3.93851 1.23417 2.84558 2.03999 2.03976C2.84581 1.23394 3.93874 0.781237 5.07834 0.781237C6.21794 0.781237 7.31087 1.23394 8.11669 2.03976C8.92251 2.84558 9.37521 3.93851 9.37521 5.07811Z" fill="black"/>
</g>
<defs>
<clipPath id="clip0_9_781">
<rect width="12.5" height="12.5" fill="white"/>
</clipPath>
</defs>
</svg>
