<svg width="31" height="32" viewBox="0 0 31 32" fill="none" xmlns="http://www.w3.org/2000/svg">
<path d="M11.3391 26.4001C10.8566 26.4001 10.3849 26.5409 9.98373 26.8046C9.58254 27.0683 9.26986 27.4431 9.08521 27.8817C8.90056 28.3202 8.85225 28.8028 8.94638 29.2683C9.04052 29.7339 9.27286 30.1615 9.61405 30.4972C9.95523 30.8328 10.3899 31.0614 10.8631 31.154C11.3364 31.2466 11.8269 31.1991 12.2727 31.0174C12.7184 30.8358 13.0995 30.5282 13.3675 30.1335C13.6356 29.7388 13.7787 29.2748 13.7787 28.8001C13.7787 28.1636 13.5216 27.5531 13.0641 27.1031C12.6066 26.653 11.9861 26.4001 11.3391 26.4001ZM28.4161 21.6001H8.89951C8.46816 21.6001 8.05449 21.4315 7.74948 21.1315C7.44447 20.8314 7.27312 20.4245 7.27312 20.0001C7.27312 19.5758 7.44447 19.1688 7.74948 18.8687C8.05449 18.5687 8.46816 18.4001 8.89951 18.4001H22.7092C23.7687 18.3969 24.7987 18.0558 25.6446 17.4281C26.4906 16.8004 27.1069 15.9199 27.4013 14.9185L29.9791 6.03851C30.048 5.80053 30.0599 5.55007 30.0138 5.30681C29.9677 5.06355 29.8648 4.83413 29.7134 4.63658C29.5619 4.43903 29.3659 4.27874 29.1408 4.1683C28.9157 4.05786 28.6677 4.00029 28.4161 4.00011H8.47665C8.13968 3.06733 7.51843 2.25952 6.69765 1.68685C5.87686 1.11417 4.89649 0.804516 3.89024 0.80011H2.39396C1.96262 0.80011 1.54894 0.968681 1.24394 1.26874C0.938929 1.5688 0.767578 1.97576 0.767578 2.40011C0.767578 2.82446 0.938929 3.23142 1.24394 3.53148C1.54894 3.83154 1.96262 4.00011 2.39396 4.00011H3.89187C4.24504 4.00122 4.58835 4.11484 4.87039 4.32395C5.15244 4.53306 5.35805 4.82642 5.45645 5.16011L5.70854 6.03211V6.04011L8.37744 15.2273C7.13515 15.358 5.99114 15.9525 5.18118 16.8883C4.37122 17.8241 3.95703 19.0299 4.02397 20.2573C4.0909 21.4846 4.63386 22.6399 5.54095 23.4851C6.44804 24.3303 7.65014 24.801 8.89951 24.8001H28.4161C28.8475 24.8001 29.2612 24.6315 29.5662 24.3315C29.8712 24.0314 30.0425 23.6245 30.0425 23.2001C30.0425 22.7758 29.8712 22.3688 29.5662 22.0687C29.2612 21.7687 28.8475 21.6001 28.4161 21.6001ZM26.2596 7.20011L24.2754 14.0385C24.1772 14.3728 23.9715 14.6667 23.6891 14.8761C23.4067 15.0856 23.0628 15.1992 22.7092 15.2001H11.7522L11.3375 13.7729L9.42971 7.20011H26.2596ZM24.3502 26.4001C23.8677 26.4001 23.396 26.5409 22.9948 26.8046C22.5936 27.0683 22.2809 27.4431 22.0963 27.8817C21.9117 28.3202 21.8633 28.8028 21.9575 29.2683C22.0516 29.7339 22.284 30.1615 22.6251 30.4972C22.9663 30.8328 23.401 31.0614 23.8742 31.154C24.3475 31.2466 24.838 31.1991 25.2838 31.0174C25.7295 30.8358 26.1105 30.5282 26.3786 30.1335C26.6467 29.7388 26.7898 29.2748 26.7898 28.8001C26.7898 28.1636 26.5327 27.5531 26.0752 27.1031C25.6177 26.653 24.9972 26.4001 24.3502 26.4001Z" fill="black"/>
</svg>
