<svg width="50" height="50" viewBox="0 0 50 50" fill="none" xmlns="http://www.w3.org/2000/svg">
<path d="M39.625 10.3646C36.7312 7.47205 33.0447 5.5026 29.0316 4.70524C25.0185 3.90788 20.8591 4.31843 17.0793 5.88497C13.2995 7.45151 10.0692 10.1037 7.79672 13.5061C5.52425 16.9086 4.31173 20.9084 4.3125 25C4.3125 30.4876 6.49174 35.7506 10.3711 39.6319C14.2505 43.5132 19.5124 45.6951 25 45.6979C27.7156 45.6991 30.4051 45.1682 32.9167 44.1354C35.4202 43.0786 37.6975 41.551 39.625 39.6354C41.5472 37.7136 43.0719 35.4319 44.1122 32.9207C45.1525 30.4096 45.6879 27.7181 45.6879 25C45.6879 22.2819 45.1525 19.5904 44.1122 17.0792C43.0719 14.568 41.5472 12.2864 39.625 10.3646ZM38.1667 38.1562C35.1876 41.148 31.2787 43.0364 27.0833 43.5104V29.8437H31C31.5525 29.8437 32.0824 29.6242 32.4731 29.2335C32.8638 28.8428 33.0833 28.3129 33.0833 27.7604C33.0833 27.2079 32.8638 26.678 32.4731 26.2873C32.0824 25.8966 31.5525 25.6771 31 25.6771H27.0833V19.9687C27.0833 19.4162 27.3028 18.8863 27.6935 18.4956C28.0842 18.1049 28.6141 17.8854 29.1667 17.8854H31.6667C32.2192 17.8854 32.7491 17.6659 33.1398 17.2752C33.5305 16.8845 33.75 16.3546 33.75 15.8021C33.75 15.2495 33.5305 14.7196 33.1398 14.3289C32.7491 13.9382 32.2192 13.7187 31.6667 13.7187H28.125C26.7437 13.7187 25.4189 14.2675 24.4422 15.2442C23.4654 16.221 22.9167 17.5457 22.9167 18.9271V25.6771H19.0208C18.4683 25.6771 17.9384 25.8966 17.5477 26.2873C17.157 26.678 16.9375 27.2079 16.9375 27.7604C16.9375 28.3129 17.157 28.8428 17.5477 29.2335C17.9384 29.6242 18.4683 29.8437 19.0208 29.8437H22.9167V43.5104C19.0477 43.069 15.4152 41.4232 12.5322 38.8055C9.64921 36.1879 7.66149 32.7306 6.84979 28.922C6.0381 25.1135 6.44345 21.1462 8.00861 17.5805C9.57376 14.0148 12.2196 11.031 15.5724 9.05044C18.9252 7.06989 22.8155 6.19276 26.6938 6.54293C30.5721 6.8931 34.2424 8.45288 37.1862 11.0019C40.13 13.551 42.1986 16.9605 43.0998 20.7489C44.0009 24.5373 43.6891 28.513 42.2083 32.1146C41.2652 34.3713 39.8926 36.4232 38.1667 38.1562Z" fill="black"/>
</svg>
