<svg width="50" height="50" viewBox="0 0 50 50" fill="none" xmlns="http://www.w3.org/2000/svg">
<g clip-path="url(#clip0_9_599)">
<path d="M48.4176 45.255L45.0001 35H41.2501L43.3326 45H6.66759L8.75009 35H5.00009L1.58009 45.255C0.712587 47.865 2.25009 50 5.00009 50H45.0001C47.7501 50 49.2876 47.865 48.4176 45.255ZM37.5001 12.5C37.5001 9.18479 36.1831 6.00537 33.8389 3.66117C31.4947 1.31696 28.3153 0 25.0001 0C21.6849 0 18.5055 1.31696 16.1613 3.66117C13.817 6.00537 12.5001 9.18479 12.5001 12.5C12.5001 24.4375 25.0001 37.5 25.0001 37.5C25.0001 37.5 37.5001 24.4375 37.5001 12.5ZM18.2501 12.65C18.2501 11.7637 18.4247 10.8861 18.7639 10.0673C19.1032 9.24846 19.6004 8.50451 20.2273 7.87791C20.8541 7.25132 21.5982 6.75435 22.4172 6.41541C23.2361 6.07646 24.1138 5.90217 25.0001 5.9025C26.79 5.9025 28.5065 6.61353 29.7722 7.87916C31.0378 9.1448 31.7488 10.8614 31.7488 12.6513C31.7488 14.4411 31.0378 16.1577 29.7722 17.4233C28.5065 18.689 26.79 19.4 25.0001 19.4C23.2099 19.4 21.493 18.6888 20.2271 17.423C18.9612 16.1571 18.2501 14.4402 18.2501 12.65Z" fill="black"/>
</g>
<defs>
<clipPath id="clip0_9_599">
<rect width="50" height="50" fill="white"/>
</clipPath>
</defs>
</svg>
