<svg width="13" height="13" viewBox="0 0 13 13" fill="none" xmlns="http://www.w3.org/2000/svg">
<path d="M6.50016 0.833374C7.25161 0.833374 7.97228 1.13188 8.50363 1.66324C9.03498 2.19459 9.3335 2.91526 9.3335 3.66671C9.3335 4.41815 9.03498 5.13882 8.50363 5.67018C7.97228 6.20153 7.25161 6.50004 6.50016 6.50004C5.74872 6.50004 5.02805 6.20153 4.49669 5.67018C3.96534 5.13882 3.66683 4.41815 3.66683 3.66671C3.66683 2.91526 3.96534 2.19459 4.49669 1.66324C5.02805 1.13188 5.74872 0.833374 6.50016 0.833374ZM6.50016 7.91671C9.631 7.91671 12.1668 9.18462 12.1668 10.75V12.1667H0.833496V10.75C0.833496 9.18462 3.36933 7.91671 6.50016 7.91671Z" fill="black"/>
</svg>
