<svg width="69" height="69" viewBox="0 0 69 69" fill="none" xmlns="http://www.w3.org/2000/svg">
<path d="M57.8296 59.9114C52.8966 64.4416 46.7509 67.4379 40.1428 68.5345C33.5348 69.6311 26.7503 68.7805 20.6178 66.0866C14.4852 63.3927 9.26993 58.972 5.60864 53.3643C1.94736 47.7566 -0.00149998 41.2045 8.66212e-07 34.5079H5.74904C5.74863 40.2961 7.49664 45.9495 10.7642 50.7278C14.0317 55.5062 18.6665 59.1867 24.0615 61.2874C29.4566 63.3882 35.3605 63.8113 41.0001 62.5012C46.6397 61.1912 51.7521 58.2092 55.668 53.9456H47.3146C46.5522 53.9456 45.8211 53.6428 45.282 53.1039C44.7429 52.565 44.4401 51.8341 44.4401 51.0719C44.4401 50.3097 44.7429 49.5788 45.282 49.0399C45.8211 48.501 46.5522 48.1982 47.3146 48.1982H60.7041C61.4665 48.1982 62.1976 48.501 62.7367 49.0399C63.2758 49.5788 63.5786 50.3097 63.5786 51.0719V64.4461C63.5786 65.2082 63.2758 65.9392 62.7367 66.4781C62.1976 67.017 61.4665 67.3198 60.7041 67.3198C59.9418 67.3198 59.2106 67.017 58.6715 66.4781C58.1325 65.9392 57.8296 65.2082 57.8296 64.4461V59.9056V59.9114ZM13.3205 15.076H21.6739C22.4363 15.076 23.1674 15.3788 23.7065 15.9177C24.2456 16.4566 24.5484 17.1876 24.5484 17.9497C24.5484 18.7119 24.2456 19.4428 23.7065 19.9817C23.1674 20.5206 22.4363 20.8234 21.6739 20.8234H8.27862C7.51625 20.8234 6.7851 20.5206 6.24603 19.9817C5.70695 19.4428 5.4041 18.7119 5.4041 17.9497V4.56404C5.4041 3.80189 5.70695 3.07095 6.24603 2.53203C6.7851 1.99311 7.51625 1.69034 8.27862 1.69034C9.04099 1.69034 9.77214 1.99311 10.3112 2.53203C10.8503 3.07095 11.1531 3.80189 11.1531 4.56404V9.10447C16.0856 4.56865 22.2328 1.56749 28.8438 0.467746C35.4547 -0.631993 42.2429 0.217325 48.3788 2.91191C54.5147 5.60649 59.7325 10.0296 63.3947 15.6408C67.0568 21.2519 69.0046 27.808 69 34.5079H63.2509C63.2515 28.719 61.5031 23.0648 58.2348 18.2861C54.9666 13.5073 50.3308 9.82674 44.9348 7.72646C39.5387 5.62617 33.6339 5.2041 27.9938 6.51552C22.3538 7.82694 17.2414 10.8107 13.3263 15.076H13.3205Z" fill="#343434"/>
<path d="M32.837 53.6364V17.2727H35.1665V53.6364H32.837ZM40.6779 28.1818C40.5075 26.7424 39.8162 25.625 38.604 24.8295C37.3919 24.0341 35.9052 23.6364 34.1438 23.6364C32.8559 23.6364 31.729 23.8447 30.7631 24.2614C29.8067 24.678 29.0586 25.2509 28.5188 25.9801C27.9885 26.7093 27.7234 27.5379 27.7234 28.4659C27.7234 29.2424 27.908 29.91 28.2773 30.4688C28.6561 31.018 29.1391 31.4773 29.7262 31.8466C30.3133 32.2064 30.9289 32.5047 31.5728 32.7415C32.2167 32.9687 32.8086 33.1534 33.3484 33.2955L36.3029 34.0909C37.0605 34.2898 37.9033 34.5644 38.8313 34.9148C39.7688 35.2652 40.6637 35.7434 41.516 36.3494C42.3777 36.946 43.088 37.7131 43.6467 38.6506C44.2054 39.5881 44.4847 40.7386 44.4847 42.1023C44.4847 43.6742 44.0728 45.0947 43.2489 46.3636C42.4345 47.6326 41.2414 48.6411 39.6694 49.3892C38.1069 50.1373 36.2082 50.5114 33.9734 50.5114C31.89 50.5114 30.0861 50.1752 28.5614 49.5028C27.0463 48.8305 25.8531 47.893 24.9819 46.6903C24.1201 45.4877 23.6325 44.0909 23.5188 42.5H27.1552C27.2499 43.5985 27.6192 44.5076 28.2631 45.2273C28.9165 45.9375 29.7404 46.4678 30.7347 46.8182C31.7385 47.1591 32.8181 47.3295 33.9734 47.3295C35.3181 47.3295 36.5255 47.1117 37.5955 46.6761C38.6656 46.2311 39.5131 45.6155 40.1381 44.8295C40.7631 44.0341 41.0756 43.1061 41.0756 42.0455C41.0756 41.0795 40.8058 40.2936 40.266 39.6875C39.7262 39.0814 39.016 38.589 38.1353 38.2102C37.2546 37.8314 36.3029 37.5 35.2802 37.2159L31.7006 36.1932C29.4279 35.5398 27.6287 34.607 26.3029 33.3949C24.9772 32.1828 24.3143 30.5966 24.3143 28.6364C24.3143 27.0076 24.7546 25.5871 25.6353 24.375C26.5254 23.1534 27.7186 22.2064 29.2148 21.5341C30.7205 20.8523 32.4014 20.5114 34.2575 20.5114C36.1325 20.5114 37.7991 20.8475 39.2575 21.5199C40.7158 22.1828 41.8711 23.0919 42.7234 24.2472C43.5851 25.4025 44.0397 26.714 44.087 28.1818H40.6779Z" fill="#7DF51E"/>
<path d="M32.837 53.6364H31.837V54.6364H32.837V53.6364ZM32.837 17.2727V16.2727H31.837V17.2727H32.837ZM35.1665 17.2727H36.1665V16.2727H35.1665V17.2727ZM35.1665 53.6364V54.6364H36.1665V53.6364H35.1665ZM40.6779 28.1818L39.6849 28.2994L39.7893 29.1818H40.6779V28.1818ZM38.604 24.8295L38.0554 25.6656L38.604 24.8295ZM30.7631 24.2614L30.367 23.3431L30.3637 23.3446L30.7631 24.2614ZM28.5188 25.9801L27.7151 25.3851L27.7101 25.3919L28.5188 25.9801ZM28.2773 30.4688L27.4431 31.0202L27.4485 31.0284L27.4541 31.0365L28.2773 30.4688ZM29.7262 31.8466L29.1937 32.6931L29.2036 32.6992L29.7262 31.8466ZM31.5728 32.7415L31.2277 33.6801L31.24 33.6845L31.5728 32.7415ZM33.3484 33.2955L33.6083 32.3298L33.6029 32.3284L33.3484 33.2955ZM36.3029 34.0909L36.0429 35.0565L36.049 35.0581L36.3029 34.0909ZM38.8313 34.9148L38.4781 35.8503L38.4812 35.8515L38.8313 34.9148ZM41.516 36.3494L40.9364 37.1645L40.9468 37.1716L41.516 36.3494ZM43.6467 38.6506L44.5057 38.1386L43.6467 38.6506ZM43.2489 46.3636L42.4102 45.8191L42.4074 45.8235L43.2489 46.3636ZM39.6694 49.3892L39.2397 48.4862L39.2375 48.4873L39.6694 49.3892ZM28.5614 49.5028L28.1558 50.4169L28.1579 50.4178L28.5614 49.5028ZM24.9819 46.6903L24.169 47.2728L24.1721 47.277L24.9819 46.6903ZM23.5188 42.5V41.5H22.4448L22.5214 42.5712L23.5188 42.5ZM27.1552 42.5L28.1515 42.4141L28.0727 41.5H27.1552V42.5ZM28.2631 45.2273L27.5178 45.8941L27.5272 45.9043L28.2631 45.2273ZM30.7347 46.8182L30.4024 47.7614L30.4131 47.7651L30.7347 46.8182ZM37.5955 46.6761L37.9726 47.6024L37.9796 47.5995L37.5955 46.6761ZM40.1381 44.8295L40.9209 45.4519L40.9245 45.4474L40.1381 44.8295ZM40.266 39.6875L41.0127 39.0224L40.266 39.6875ZM38.1353 38.2102L37.7402 39.1289H37.7402L38.1353 38.2102ZM35.2802 37.2159L35.0055 38.1775L35.0125 38.1794L35.2802 37.2159ZM31.7006 36.1932L31.4243 37.1543L31.4259 37.1547L31.7006 36.1932ZM26.3029 33.3949L25.6281 34.1329H25.6281L26.3029 33.3949ZM25.6353 24.375L24.8271 23.7861L24.8263 23.7872L25.6353 24.375ZM29.2148 21.5341L29.6247 22.4462L29.6274 22.445L29.2148 21.5341ZM39.2575 21.5199L38.8388 22.428L38.8437 22.4303L39.2575 21.5199ZM42.7234 24.2472L41.9186 24.8408L41.9218 24.8451L42.7234 24.2472ZM44.087 28.1818V29.1818H45.1198L45.0865 28.1496L44.087 28.1818ZM33.837 53.6364V17.2727H31.837V53.6364H33.837ZM32.837 18.2727H35.1665V16.2727H32.837V18.2727ZM34.1665 17.2727V53.6364H36.1665V17.2727H34.1665ZM35.1665 52.6364H32.837V54.6364H35.1665V52.6364ZM41.671 28.0642C41.4658 26.3314 40.6117 24.951 39.1527 23.9935L38.0554 25.6656C39.0206 26.299 39.5491 27.1535 39.6849 28.2994L41.671 28.0642ZM39.1527 23.9935C37.7455 23.07 36.0579 22.6364 34.1438 22.6364V24.6364C35.7525 24.6364 37.0383 24.9982 38.0554 25.6656L39.1527 23.9935ZM34.1438 22.6364C32.7495 22.6364 31.4827 22.8619 30.367 23.3432L31.1592 25.1796C31.9753 24.8275 32.9624 24.6364 34.1438 24.6364V22.6364ZM30.3637 23.3446C29.2711 23.8206 28.3739 24.4952 27.7151 25.3851L29.3226 26.5751C29.7433 26.0067 30.3423 25.5355 31.1625 25.1781L30.3637 23.3446ZM27.7101 25.3919C27.0516 26.2973 26.7234 27.3332 26.7234 28.4659H28.7234C28.7234 27.7426 28.9254 27.1212 29.3276 26.5683L27.7101 25.3919ZM26.7234 28.4659C26.7234 29.4065 26.9493 30.2731 27.4431 31.0202L29.1116 29.9173C28.8668 29.547 28.7234 29.0784 28.7234 28.4659H26.7234ZM27.4541 31.0365C27.913 31.7018 28.4965 32.2544 29.1938 32.6931L30.2587 31.0001C29.7817 30.7001 29.3993 30.3342 29.1006 29.901L27.4541 31.0365ZM29.2036 32.6992C29.8467 33.0933 30.5217 33.4205 31.2277 33.6801L31.9179 31.8029C31.336 31.589 30.7799 31.3195 30.2488 30.994L29.2036 32.6992ZM31.24 33.6845C31.9042 33.9189 32.5226 34.1122 33.0939 34.2625L33.6029 32.3284C33.0946 32.1946 32.5292 32.0186 31.9056 31.7985L31.24 33.6845ZM33.0884 34.2611L36.0429 35.0565L36.5629 33.1253L33.6083 32.3298L33.0884 34.2611ZM36.049 35.0581C36.7655 35.2462 37.5745 35.5092 38.4781 35.8503L39.1845 33.9792C38.2321 33.6196 37.3555 33.3333 36.5568 33.1237L36.049 35.0581ZM38.4812 35.8515C39.3337 36.1701 40.1519 36.6064 40.9365 37.1644L42.0955 35.5345C41.1756 34.8803 40.2039 34.3602 39.1814 33.9781L38.4812 35.8515ZM40.9468 37.1716C41.6859 37.6834 42.2991 38.3428 42.7876 39.1625L44.5057 38.1386C43.8768 37.0834 43.0695 36.2087 42.0852 35.5272L40.9468 37.1716ZM42.7876 39.1625C43.2337 39.9109 43.4847 40.8743 43.4847 42.1023H45.4847C45.4847 40.603 45.1771 39.2652 44.5057 38.1386L42.7876 39.1625ZM43.4847 42.1023C43.4847 43.4889 43.1246 44.7188 42.4102 45.8191L44.0877 46.9082C45.021 45.4706 45.4847 43.8596 45.4847 42.1023H43.4847ZM42.4074 45.8235C41.7085 46.9124 40.6697 47.8057 39.2397 48.4862L40.0991 50.2922C41.813 49.4765 43.1606 48.3527 44.0905 46.9038L42.4074 45.8235ZM39.2375 48.4873C37.8431 49.1549 36.1005 49.5114 33.9734 49.5114V51.5114C36.3159 51.5114 38.3707 51.1197 40.1012 50.2912L39.2375 48.4873ZM33.9734 49.5114C31.9953 49.5114 30.3348 49.192 28.9649 48.5879L28.1579 50.4178C29.8373 51.1584 31.7848 51.5114 33.9734 51.5114V49.5114ZM28.967 48.5888C27.594 47.9795 26.5478 47.1474 25.7917 46.1037L24.1721 47.277C25.1584 48.6386 26.4986 49.6815 28.1558 50.4169L28.967 48.5888ZM25.7948 46.1079C25.049 45.067 24.6178 43.8504 24.5163 42.4288L22.5214 42.5712C22.6471 44.3314 23.1913 45.9083 24.169 47.2728L25.7948 46.1079ZM23.5188 43.5H27.1552V41.5H23.5188V43.5ZM26.1589 42.5859C26.2694 43.8682 26.7096 44.9907 27.5179 45.8941L29.0084 44.5605C28.5288 44.0245 28.2303 43.3288 28.1515 42.4141L26.1589 42.5859ZM27.5272 45.9043C28.3014 46.7458 29.2684 47.3617 30.4024 47.7613L31.0671 45.875C30.2125 45.5739 29.5317 45.1292 28.9991 44.5502L27.5272 45.9043ZM30.4131 47.7651C31.5294 48.1442 32.7185 48.3295 33.9734 48.3295V46.3295C32.9176 46.3295 31.9476 46.174 31.0563 45.8713L30.4131 47.7651ZM33.9734 48.3295C35.4264 48.3295 36.7648 48.094 37.9726 47.6023L37.2185 45.7499C36.2861 46.1295 35.2097 46.3295 33.9734 46.3295V48.3295ZM37.9796 47.5995C39.1815 47.0995 40.1753 46.3895 40.9208 45.4519L39.3554 44.2072C38.851 44.8415 38.1497 45.3626 37.2115 45.7528L37.9796 47.5995ZM40.9245 45.4474C41.6949 44.4668 42.0756 43.3185 42.0756 42.0455H40.0756C40.0756 42.8937 39.8313 43.6014 39.3518 44.2117L40.9245 45.4474ZM42.0756 42.0455C42.0756 40.8835 41.7456 39.8453 41.0127 39.0224L39.5192 40.3526C39.8659 40.7418 40.0756 41.2756 40.0756 42.0455H42.0756ZM41.0127 39.0224C40.3596 38.2891 39.5213 37.7178 38.5304 37.2916L37.7402 39.1289C38.5106 39.4602 39.0928 39.8738 39.5192 40.3526L41.0127 39.0224ZM38.5304 37.2916C37.6042 36.8932 36.6095 36.5473 35.5478 36.2524L35.0125 38.1794C35.9964 38.4527 36.9051 38.7697 37.7402 39.1289L38.5304 37.2916ZM35.5549 36.2544L31.9754 35.2317L31.4259 37.1547L35.0055 38.1774L35.5549 36.2544ZM31.9769 35.2321C29.8074 34.6084 28.1594 33.7373 26.9777 32.6569L25.6281 34.1329C27.0979 35.4767 29.0484 36.4712 31.4243 37.1543L31.9769 35.2321ZM26.9777 32.6569C25.8793 31.6527 25.3143 30.3444 25.3143 28.6364H23.3143C23.3143 30.8487 24.075 32.7129 25.6281 34.1329L26.9777 32.6569ZM25.3143 28.6364C25.3143 27.1994 25.6987 25.989 26.4443 24.9628L24.8263 23.7872C23.8105 25.1852 23.3143 26.8158 23.3143 28.6364H25.3143ZM26.4435 24.9639C27.2226 23.8947 28.2732 23.0536 29.6247 22.4462L28.805 20.622C27.1641 21.3593 25.8283 22.4121 24.8271 23.7861L26.4435 24.9639ZM29.6274 22.445C30.9883 21.8287 32.5261 21.5114 34.2575 21.5114V19.5114C32.2767 19.5114 30.4527 19.8758 28.8023 20.6231L29.6274 22.445ZM34.2575 21.5114C36.0119 21.5114 37.5319 21.8255 38.8388 22.428L39.6761 20.6118C38.0663 19.8696 36.253 19.5114 34.2575 19.5114V21.5114ZM38.8437 22.4303C40.1651 23.0309 41.1789 23.838 41.9186 24.8408L43.5281 23.6535C42.5633 22.3457 41.2664 21.3346 39.6713 20.6095L38.8437 22.4303ZM41.9218 24.8451C42.6588 25.8332 43.0466 26.9465 43.0875 28.2141L45.0865 28.1496C45.0327 26.4816 44.5114 24.9717 43.5249 23.6493L41.9218 24.8451ZM44.087 27.1818H40.6779V29.1818H44.087V27.1818Z" fill="black"/>
</svg>
