<svg width="81" height="65" viewBox="0 0 81 65" fill="none" xmlns="http://www.w3.org/2000/svg">
<path d="M7.125 48.2448L28.5 57.8448V7.4H7.125V48.2448ZM7.125 1H49.875C51.7647 1 53.5769 1.67428 54.9131 2.87452C56.2493 4.07475 57 5.70261 57 7.4V52.2L28.5 65L0 52.2V7.4C0 5.70261 0.750667 4.07475 2.08686 2.87452C3.42306 1.67428 5.23533 1 7.125 1Z" fill="#343434"/>
<path d="M43.3039 17.7129L52.514 27.9482L52.886 28.3615L53.2576 27.9479L77.6964 0.74831L80.3281 3.68009L52.8857 34.2515L40.6719 20.645L43.3039 17.7129Z" fill="#7DF51E" stroke="black"/>
</svg>
